<?xml version="1.0"?>
<svg version="1.1" xmlns="http://www.w3.org/2000/svg" width="400" height="200" style="border: dashed 2px #aaa">
    <path fill="#0051ff"
        d="M34.47,105.91c0,3.6-1.23,6.3-3.27,8.04c-1.86,1.56-4.47,2.25-7.44,2.25l-5.73,0c-0.6,0-0.87-0.15-0.87-0.84l0-19.02c0-0.63,0.18-0.9,0.93-0.9l4.32,0c3.45,0,5.79,0.39,7.77,1.53c2.7,1.56,4.29,4.5,4.29,8.94z M30.33,105.88c0-2.73-0.81-4.8-2.34-5.94c-1.23-0.9-2.82-1.23-4.74-1.23l-2.19,0l0,14.25l2.31,0c2.07,0,3.81-0.33,5.07-1.59c1.2-1.2,1.89-3,1.89-5.49z M53.565,115.63c0,0.36-0.24,0.57-0.6,0.57l-1.44,0c-1.56,0-2.25-0.75-2.46-1.77l-0.06,0c-0.75,1.11-2.7,2.13-4.35,2.13c-4.23,0-6.15-3.48-6.15-7.38c0-5.19,3.12-7.92,6.48-7.92c1.59,0,3.09,0.72,3.84,1.74l0.06-0.81c0.03-0.33,0.27-0.54,0.63-0.54l2.1,0c0.39,0,0.63,0.21,0.63,0.66l0,10.41c0,0.42,0.06,0.72,0.18,0.87c0.09,0.09,0.21,0.12,0.36,0.12l0.24,0c0.36,0,0.54,0.12,0.54,0.51l0,1.41z M48.615,111.55l0-5.79c-0.6-0.87-1.83-1.53-2.97-1.53c-1.83,0-3.39,1.56-3.39,4.71c0,2.52,0.96,4.65,3.18,4.65c1.47,0,2.73-1.11,3.18-2.04z M70.26,102.07c0,0.09-0.03,0.18-0.06,0.3l-5.25,13.26c-0.18,0.45-0.42,0.57-0.87,0.57l-1.56,0c-0.45,0-0.75-0.12-0.9-0.54l-5.16-13.38c-0.03-0.09-0.06-0.18-0.06-0.27c0-0.24,0.15-0.36,0.54-0.36l2.64,0c0.51,0,0.75,0.21,0.87,0.6l2.28,6.99c0.3,0.9,0.57,1.89,0.75,2.55l0.03,0c0.15-0.57,0.45-1.62,0.72-2.46l2.34-7.05c0.15-0.51,0.39-0.63,0.93-0.63l2.16,0c0.39,0,0.6,0.15,0.6,0.42z M86.985,108.88c0,0.72-0.24,0.87-0.99,0.87l-8.79,0c0.24,2.31,1.92,3.9,4.29,3.9c1.26,0,2.58-0.3,3.69-0.72c0.12-0.03,0.21-0.09,0.33-0.09c0.21,0,0.36,0.12,0.42,0.36l0.42,1.53c0.03,0.15,0.06,0.27,0.06,0.36c0,0.21-0.12,0.36-0.48,0.51c-1.47,0.66-3.48,0.96-5.04,0.96c-4.71,0-7.5-3-7.5-7.68c0-4.5,2.97-7.62,7.44-7.62c1.83,0,3.33,0.69,4.38,1.8c1.38,1.44,1.77,3.33,1.77,5.37l0,0.45z M83.415,107.38l0-0.33c-0.06-1.56-0.96-3-2.79-3c-1.95,0-3.12,1.56-3.36,3.33l6.15,0z M109.08,105.91c0,3.6-1.23,6.3-3.27,8.04c-1.86,1.56-4.47,2.25-7.44,2.25l-5.73,0c-0.6,0-0.87-0.15-0.87-0.84l0-19.02c0-0.63,0.18-0.9,0.93-0.9l4.32,0c3.45,0,5.79,0.39,7.77,1.53c2.7,1.56,4.29,4.5,4.29,8.94z M104.94,105.88c0-2.73-0.81-4.8-2.34-5.94c-1.23-0.9-2.82-1.23-4.74-1.23l-2.19,0l0,14.25l2.31,0c2.07,0,3.81-0.33,5.07-1.59c1.2-1.2,1.89-3,1.89-5.49z M128.175,115.63c0,0.36-0.24,0.57-0.6,0.57l-1.44,0c-1.56,0-2.25-0.75-2.46-1.77l-0.06,0c-0.75,1.11-2.7,2.13-4.35,2.13c-4.23,0-6.15-3.48-6.15-7.38c0-5.19,3.12-7.92,6.48-7.92c1.59,0,3.09,0.72,3.84,1.74l0.06-0.81c0.03-0.33,0.27-0.54,0.63-0.54l2.1,0c0.39,0,0.63,0.21,0.63,0.66l0,10.41c0,0.42,0.06,0.72,0.18,0.87c0.09,0.09,0.21,0.12,0.36,0.12l0.24,0c0.36,0,0.54,0.12,0.54,0.51l0,1.41z M123.225,111.55l0-5.79c-0.6-0.87-1.83-1.53-2.97-1.53c-1.83,0-3.39,1.56-3.39,4.71c0,2.52,0.96,4.65,3.18,4.65c1.47,0,2.73-1.11,3.18-2.04z M151.86,102.04c0,0.09,0,0.15-0.03,0.24l-4.02,13.2c-0.15,0.45-0.39,0.72-0.93,0.72l-2.04,0c-0.54,0-0.78-0.27-0.93-0.75l-2.49-8.55l-0.06,0l-2.46,8.61c-0.15,0.48-0.42,0.69-0.96,0.69l-2.01,0c-0.48,0-0.81-0.3-0.93-0.72l-3.93-13.2c-0.03-0.09-0.03-0.18-0.03-0.24c0-0.27,0.21-0.39,0.6-0.39l2.46,0c0.57,0,0.75,0.21,0.84,0.57l2.16,9.48l0.03,0l2.79-9.45c0.12-0.45,0.42-0.6,0.81-0.6l1.68,0c0.45,0,0.72,0.15,0.81,0.51l2.73,9.6l0.03,0l2.25-9.45c0.09-0.42,0.33-0.66,0.87-0.66l2.31,0c0.36,0,0.45,0.18,0.45,0.39z M165.615,111.91c0,3.15-2.73,4.65-5.79,4.65c-1.56,0-3.27-0.45-4.62-1.05c-0.27-0.12-0.36-0.3-0.36-0.48c0-0.09,0.03-0.18,0.06-0.27l0.48-1.53c0.09-0.3,0.24-0.42,0.42-0.42c0.09,0,0.18,0,0.33,0.06c1.32,0.54,2.73,0.93,3.78,0.93c1.32,0,2.22-0.6,2.22-1.59c0-0.84-0.57-1.29-1.8-1.77l-2.37-0.9c-1.71-0.63-3.09-1.95-3.09-3.99c0-2.94,2.76-4.29,5.43-4.29c1.44,0,2.85,0.24,4.35,0.9c0.24,0.12,0.36,0.24,0.36,0.42c0,0.09-0.03,0.18-0.06,0.3l-0.51,1.62c-0.06,0.21-0.21,0.33-0.42,0.33c-0.09,0-0.21-0.03-0.3-0.06c-0.99-0.39-2.28-0.72-3.24-0.72c-1.26,0-1.89,0.69-1.89,1.38c0,0.66,0.33,1.08,1.47,1.53l2.7,1.11c1.59,0.66,2.85,1.89,2.85,3.84z M183.63,108.91c0,4.32-2.64,7.65-7.32,7.65c-4.89,0-7.14-3.3-7.14-7.68c0-4.32,2.64-7.62,7.32-7.62c4.89,0,7.14,3.24,7.14,7.65z M179.88,108.91c0-2.46-0.78-4.8-3.42-4.8c-2.67,0-3.54,2.31-3.54,4.71c0,2.46,0.75,4.89,3.42,4.89c2.64,0,3.54-2.34,3.54-4.8z M201.375,115.42c0,0.51-0.18,0.78-0.72,0.78l-2.16,0c-0.54,0-0.72-0.27-0.72-0.78l0-8.16c0-1.65-0.45-2.82-2.28-2.82c-1.17,0-2.61,0.63-3.54,1.44l0,9.57c0,0.51-0.21,0.75-0.72,0.75l-2.19,0c-0.45,0-0.72-0.24-0.72-0.72l0-13.08c0-0.48,0.21-0.75,0.75-0.75l1.95,0c0.42,0,0.69,0.12,0.72,0.57l0.03,0.78c1.38-1.11,3.12-1.74,4.86-1.74c3.36,0,4.74,2.1,4.74,5.37l0,8.79z" />
    <path fill="#"
        d="M213.77,109.72c0,0.82-0.74,1.34-1.42,1.34c-0.7,0-1.42-0.48-1.42-1.32c0-0.86,0.68-1.36,1.42-1.36c0.72,0,1.42,0.5,1.42,1.34z M224.18,110.12c0,0.16-0.1,0.24-0.28,0.32c-0.96,0.44-1.84,0.6-2.9,0.6c-3.08,0-4.78-1.92-4.78-5c0-3.1,1.86-5.2,4.96-5.2c0.9,0,1.84,0.18,2.68,0.56c0.16,0.08,0.24,0.12,0.24,0.28c0,0.06-0.02,0.18-0.04,0.24l-0.26,1.06c-0.04,0.18-0.12,0.28-0.24,0.28c-0.06,0-0.14-0.04-0.22-0.08c-0.58-0.24-1.22-0.44-1.92-0.44c-1.72,0-2.7,1.22-2.7,3.18c0,1.92,0.88,3.24,2.6,3.24c0.86,0,1.4-0.16,2.1-0.44c0.06-0.02,0.14-0.06,0.2-0.06c0.12,0,0.2,0.1,0.24,0.24l0.26,0.88c0.04,0.14,0.06,0.26,0.06,0.34z M236.07,105.94c0,2.88-1.76,5.1-4.88,5.1c-3.26,0-4.76-2.2-4.76-5.12c0-2.88,1.76-5.08,4.88-5.08c3.26,0,4.76,2.16,4.76,5.1z M233.57,105.94c0-1.64-0.52-3.2-2.28-3.2c-1.78,0-2.36,1.54-2.36,3.14c0,1.64,0.5,3.26,2.28,3.26c1.76,0,2.36-1.56,2.36-3.2z" />
    </svg>